# xmcd
#
# Track frame offsets:
#	150
#	11392
#	23529
#	35907
#	50391
#	61708
#	75110
#	87040
#	97617
#	112222
#	126488
#	142659
#	156453
#	169702
#	181636
#
# Disc length: 2594 seconds
#
# Revision: 0
# Processed by: cddbd v1.5.2PL0 Copyright (c) Steve Scherf et al.
# Submitted via: EasyCDDAExtractor 16.0.6.1
#
DISCID=a60a200f
DTITLE=Various Artist - Τα καλ. ελληνικά τραγούδια 1978
DYEAR=1978
DGENRE=Λαϊκή
TTITLE0=Γαλάνη Δήμητρα - Μ' αγαπούσες θυμάμαι μιά φορά [Α. Βαρδή-Π. Φαλάρα]
TTITLE1=Παπακωνσταντίνου Βασίλης - Φεύγουν καράβια [Α. Βαρδή-Π. Φαλάρα]
TTITLE2=Πουλόπουλος Γιάννης - Θέλω να μ' αγαπάς [Α. Βαρδή-Π. Φαλάρα]
TTITLE3=Πάριος Γιάννης - Φταίμε και οι δυό [Γ. Σπανού]
TTITLE4=Κόκοτας Σταμάτης - Τα θερινά τα σινεμά [Λ. Κηλαηδόνη]
TTITLE5=Πάριος Γιάννης - Ακόμα σε θυμάμαι [Tony Vale-Edilda-Πυθαγόρα]
TTITLE6=Γαλάνη Δήμητρα - Πάντα το χρώμα μου ήταν το γκρίζο [Γ. Σπανού-Δ. Ιατρό
TTITLE6=πουλου]
TTITLE7=Μητσιάς Μανώλης - Φωνάζουν οι γειτόνοι [Μ. Τόκα]
TTITLE8=Παπακωνσταντίνου Βασίλης - Το παζάρι του ληστή [Α. Βαρδή-Π. Φαλάρα]
TTITLE9=Γαλάνη Δήμητρα - Αχ αυτά τα μάτια σου [Α. Βαρδή-Α. Αγγελάκη]
TTITLE10=Μητσιάς Μανώλης - Τα τραίνα [Μ. Τόκα]
TTITLE11=Μπιθικώτσης Γρηγόρης - Μέσα σε κήπο [Μ. Θεοδωράκη-Μ. Ελευθερίου]
TTITLE12=Μητσιάς Μανώλης - Αλήτης [Μ. Τόκα]
TTITLE13=Βοσκόπουλος Τόλης - Με βρήκε δύσκολη στιγμή [Γ. Θεοδοσιάδη-Η. Λυμπερό
TTITLE13=πουλου]
TTITLE14=Διονυσίου Στράτος - Αργά είναι πια αργά [Α. Καλδάρα]
EXTD=
EXTT0=
EXTT1=
EXTT2=
EXTT3=
EXTT4=
EXTT5=
EXTT6=
EXTT7=
EXTT8=
EXTT9=
EXTT10=
EXTT11=
EXTT12=
EXTT13=
EXTT14=
PLAYORDER=
